<svg xmlns="http://www.w3.org/2000/svg" viewBox="0 0 100 100">
  <defs>
    <linearGradient id="bgGrad" x1="0%" y1="0%" x2="100%" y2="100%">
      <stop offset="0%" style="stop-color:#0ea5e9;stop-opacity:1" />
      <stop offset="100%" style="stop-color:#0369a1;stop-opacity:1" />
    </linearGradient>
    <linearGradient id="shieldGrad" x1="0%" y1="0%" x2="0%" y2="100%">
      <stop offset="0%" style="stop-color:#ffffff;stop-opacity:1" />
      <stop offset="100%" style="stop-color:#e0f2fe;stop-opacity:1" />
    </linearGradient>
  </defs>
  <!-- Background -->
  <rect width="100" height="100" rx="22" fill="url(#bgGrad)"/>
  <!-- Shield shape (privacy) -->
  <path d="M50 15 L75 28 L75 55 C75 70 62 82 50 88 C38 82 25 70 25 55 L25 28 Z" 
        fill="url(#shieldGrad)" 
        stroke="white" 
        stroke-width="2"/>
  <!-- Chain links (blockchain) -->
  <ellipse cx="40" cy="50" rx="8" ry="12" fill="none" stroke="#0ea5e9" stroke-width="3"/>
  <ellipse cx="60" cy="50" rx="8" ry="12" fill="none" stroke="#0ea5e9" stroke-width="3"/>
  <!-- Connection -->
  <line x1="48" y1="50" x2="52" y2="50" stroke="#0ea5e9" stroke-width="3"/>
  <!-- Lock icon (security) -->
  <rect x="44" y="62" width="12" height="10" rx="2" fill="#0369a1"/>
  <path d="M47 62 L47 58 C47 55 50 52 53 55 L53 62" fill="none" stroke="#0369a1" stroke-width="2.5" stroke-linecap="round"/>
</svg>
